STARTFONT 2.1
FONT -B&H-LucidaTypewriter-Medium-R-Normal-Sans-11-80-100-100-M-70-ISO8859-15
SIZE 8 100 100
FONTBOUNDINGBOX 7 12 0 -2

STARTPROPERTIES 23
FONTNAME_REGISTRY ""
FOUNDRY "B&H"
FAMILY_NAME "LucidaTypewriter"
WEIGHT_NAME "Medium"
SLANT "R"
SETWIDTH_NAME "Normal"
ADD_STYLE_NAME "Sans"
PIXEL_SIZE 11
POINT_SIZE 80
RESOLUTION_X 100
RESOLUTION_Y 100
SPACING "M"
AVERAGE_WIDTH 70
CHARSET_REGISTRY "ISO8859"
CHARSET_ENCODING "15"
COPYRIGHT "Copyright Bigelow & Holmes 1986, 1985."
FACE_NAME "Lucida Sans Typewriter"
WEIGHT 10
X_HEIGHT 6
QUAD_WIDTH 7
DEFAULT_CHAR 0
FONT_DESCENT 2
FONT_ASCENT 10
ENDPROPERTIES

CHARS 190

STARTCHAR space
ENCODING 32
SWIDTH 602 0
DWIDTH 7 0
BBX 7 12 0 -2
BITMAP
00
00
00
00
00
00
00
00
00
00
00
00
ENDCHAR

STARTCHAR exclam
ENCODING 33
SWIDTH 602 0
DWIDTH 7 0
BBX 7 12 0 -2
BITMAP
00
00
10
10
10
10
10
10
00
10
00
00
ENDCHAR

STARTCHAR quotedbl
ENCODING 34
SWIDTH 602 0
DWIDTH 7 0
BBX 7 12 0 -2
BITMAP
00
00
28
28
28
00
00
00
00
00
00
00
ENDCHAR

STARTCHAR numbersign
ENCODING 35
SWIDTH 602 0
DWIDTH 7 0
BBX 7 12 0 -2
BITMAP
00
00
28
28
FC
78
FC
50
50
50
00
00
ENDCHAR

STARTCHAR dollar
ENCODING 36
SWIDTH 602 0
DWIDTH 7 0
BBX 7 12 0 -2
BITMAP
00
10
3C
50
50
30
18
14
14
78
10
00
ENDCHAR

STARTCHAR percent
ENCODING 37
SWIDTH 602 0
DWIDTH 7 0
BBX 7 12 0 -2
BITMAP
00
00
44
A8
B8
50
28
74
54
88
00
00
ENDCHAR

STARTCHAR ampersand
ENCODING 38
SWIDTH 602 0
DWIDTH 7 0
BBX 7 12 0 -2
BITMAP
00
00
38
48
58
60
B2
9A
CC
7E
00
00
ENDCHAR

STARTCHAR quoteright
ENCODING 39
SWIDTH 602 0
DWIDTH 7 0
BBX 7 12 0 -2
BITMAP
00
00
30
10
30
00
00
00
00
00
00
00
ENDCHAR

STARTCHAR parenleft
ENCODING 40
SWIDTH 602 0
DWIDTH 7 0
BBX 7 12 0 -2
BITMAP
00
00
0C
10
30
20
20
20
20
10
10
0C
ENDCHAR

STARTCHAR parenright
ENCODING 41
SWIDTH 602 0
DWIDTH 7 0
BBX 7 12 0 -2
BITMAP
00
00
60
10
10
08
08
08
08
10
10
60
ENDCHAR

STARTCHAR asterisk
ENCODING 42
SWIDTH 602 0
DWIDTH 7 0
BBX 7 12 0 -2
BITMAP
00
00
10
54
28
28
28
00
00
00
00
00
ENDCHAR

STARTCHAR plus
ENCODING 43
SWIDTH 602 0
DWIDTH 7 0
BBX 7 12 0 -2
BITMAP
00
00
00
00
10
10
7C
10
10
10
00
00
ENDCHAR

STARTCHAR comma
ENCODING 44
SWIDTH 602 0
DWIDTH 7 0
BBX 7 12 0 -2
BITMAP
00
00
00
00
00
00
00
00
30
30
10
30
ENDCHAR

STARTCHAR minus
ENCODING 45
SWIDTH 602 0
DWIDTH 7 0
BBX 7 12 0 -2
BITMAP
00
00
00
00
00
00
00
FC
00
00
00
00
ENDCHAR

STARTCHAR period
ENCODING 46
SWIDTH 602 0
DWIDTH 7 0
BBX 7 12 0 -2
BITMAP
00
00
00
00
00
00
00
00
00
30
00
00
ENDCHAR

STARTCHAR slash
ENCODING 47
SWIDTH 602 0
DWIDTH 7 0
BBX 7 12 0 -2
BITMAP
00
00
04
08
08
10
10
20
20
40
40
80
ENDCHAR

STARTCHAR zero
ENCODING 48
SWIDTH 602 0
DWIDTH 7 0
BBX 7 12 0 -2
BITMAP
00
00
38
4C
44
44
44
44
44
38
00
00
ENDCHAR

STARTCHAR one
ENCODING 49
SWIDTH 602 0
DWIDTH 7 0
BBX 7 12 0 -2
BITMAP
00
00
30
50
10
10
10
10
10
7C
00
00
ENDCHAR

STARTCHAR two
ENCODING 50
SWIDTH 602 0
DWIDTH 7 0
BBX 7 12 0 -2
BITMAP
00
00
70
48
08
18
10
20
40
78
00
00
ENDCHAR

STARTCHAR three
ENCODING 51
SWIDTH 602 0
DWIDTH 7 0
BBX 7 12 0 -2
BITMAP
00
00
70
08
08
30
08
08
08
70
00
00
ENDCHAR

STARTCHAR four
ENCODING 52
SWIDTH 602 0
DWIDTH 7 0
BBX 7 12 0 -2
BITMAP
00
00
08
18
38
28
48
7C
08
08
00
00
ENDCHAR

STARTCHAR five
ENCODING 53
SWIDTH 602 0
DWIDTH 7 0
BBX 7 12 0 -2
BITMAP
00
00
78
40
40
70
18
08
08
70
00
00
ENDCHAR

STARTCHAR six
ENCODING 54
SWIDTH 602 0
DWIDTH 7 0
BBX 7 12 0 -2
BITMAP
00
00
1C
20
40
78
44
44
44
38
00
00
ENDCHAR

STARTCHAR seven
ENCODING 55
SWIDTH 602 0
DWIDTH 7 0
BBX 7 12 0 -2
BITMAP
00
00
7C
04
08
18
10
20
60
40
00
00
ENDCHAR

STARTCHAR eight
ENCODING 56
SWIDTH 602 0
DWIDTH 7 0
BBX 7 12 0 -2
BITMAP
00
00
38
44
44
38
6C
44
44
38
00
00
ENDCHAR

STARTCHAR nine
ENCODING 57
SWIDTH 602 0
DWIDTH 7 0
BBX 7 12 0 -2
BITMAP
00
00
38
44
44
44
3C
04
08
70
00
00
ENDCHAR

STARTCHAR colon
ENCODING 58
SWIDTH 602 0
DWIDTH 7 0
BBX 7 12 0 -2
BITMAP
00
00
00
00
10
00
00
00
00
10
00
00
ENDCHAR

STARTCHAR semicolon
ENCODING 59
SWIDTH 602 0
DWIDTH 7 0
BBX 7 12 0 -2
BITMAP
00
00
00
00
10
00
00
00
10
10
10
10
ENDCHAR

STARTCHAR less
ENCODING 60
SWIDTH 602 0
DWIDTH 7 0
BBX 7 12 0 -2
BITMAP
00
00
00
00
04
18
E0
60
18
04
00
00
ENDCHAR

STARTCHAR equal
ENCODING 61
SWIDTH 602 0
DWIDTH 7 0
BBX 7 12 0 -2
BITMAP
00
00
00
00
00
FC
00
00
FC
00
00
00
ENDCHAR

STARTCHAR greater
ENCODING 62
SWIDTH 602 0
DWIDTH 7 0
BBX 7 12 0 -2
BITMAP
00
00
00
00
80
60
18
1C
60
80
00
00
ENDCHAR

STARTCHAR question
ENCODING 63
SWIDTH 602 0
DWIDTH 7 0
BBX 7 12 0 -2
BITMAP
00
00
78
44
04
08
10
10
00
10
00
00
ENDCHAR

STARTCHAR at
ENCODING 64
SWIDTH 602 0
DWIDTH 7 0
BBX 7 12 0 -2
BITMAP
00
00
3C
44
9C
A4
AC
BE
40
38
00
00
ENDCHAR

STARTCHAR A
ENCODING 65
SWIDTH 602 0
DWIDTH 7 0
BBX 7 12 0 -2
BITMAP
00
00
30
30
30
58
48
78
88
84
00
00
ENDCHAR

STARTCHAR B
ENCODING 66
SWIDTH 602 0
DWIDTH 7 0
BBX 7 12 0 -2
BITMAP
00
00
7C
44
44
78
48
44
44
78
00
00
ENDCHAR

STARTCHAR C
ENCODING 67
SWIDTH 602 0
DWIDTH 7 0
BBX 7 12 0 -2
BITMAP
00
00
3C
40
80
80
80
80
40
3C
00
00
ENDCHAR

STARTCHAR D
ENCODING 68
SWIDTH 602 0
DWIDTH 7 0
BBX 7 12 0 -2
BITMAP
00
00
F8
8C
84
84
84
84
8C
F8
00
00
ENDCHAR

STARTCHAR E
ENCODING 69
SWIDTH 602 0
DWIDTH 7 0
BBX 7 12 0 -2
BITMAP
00
00
7C
40
40
78
40
40
40
7C
00
00
ENDCHAR

STARTCHAR F
ENCODING 70
SWIDTH 602 0
DWIDTH 7 0
BBX 7 12 0 -2
BITMAP
00
00
7C
40
40
40
78
40
40
40
00
00
ENDCHAR

STARTCHAR G
ENCODING 71
SWIDTH 602 0
DWIDTH 7 0
BBX 7 12 0 -2
BITMAP
00
00
3C
40
80
80
84
84
44
3C
00
00
ENDCHAR

STARTCHAR H
ENCODING 72
SWIDTH 602 0
DWIDTH 7 0
BBX 7 12 0 -2
BITMAP
00
00
44
44
44
7C
44
44
44
44
00
00
ENDCHAR

STARTCHAR I
ENCODING 73
SWIDTH 602 0
DWIDTH 7 0
BBX 7 12 0 -2
BITMAP
00
00
7C
10
10
10
10
10
10
7C
00
00
ENDCHAR

STARTCHAR J
ENCODING 74
SWIDTH 602 0
DWIDTH 7 0
BBX 7 12 0 -2
BITMAP
00
00
38
08
08
08
08
08
08
70
00
00
ENDCHAR

STARTCHAR K
ENCODING 75
SWIDTH 602 0
DWIDTH 7 0
BBX 7 12 0 -2
BITMAP
00
00
44
48
50
70
50
58
4C
46
00
00
ENDCHAR

STARTCHAR L
ENCODING 76
SWIDTH 602 0
DWIDTH 7 0
BBX 7 12 0 -2
BITMAP
00
00
40
40
40
40
40
40
40
7C
00
00
ENDCHAR

STARTCHAR M
ENCODING 77
SWIDTH 602 0
DWIDTH 7 0
BBX 7 12 0 -2
BITMAP
00
00
CC
CC
CC
CC
B4
B4
B4
84
00
00
ENDCHAR

STARTCHAR N
ENCODING 78
SWIDTH 602 0
DWIDTH 7 0
BBX 7 12 0 -2
BITMAP
00
00
44
64
64
54
54
4C
4C
44
00
00
ENDCHAR

STARTCHAR O
ENCODING 79
SWIDTH 602 0
DWIDTH 7 0
BBX 7 12 0 -2
BITMAP
00
00
78
48
84
84
84
84
48
78
00
00
ENDCHAR

STARTCHAR P
ENCODING 80
SWIDTH 602 0
DWIDTH 7 0
BBX 7 12 0 -2
BITMAP
00
00
7C
44
44
44
78
40
40
40
00
00
ENDCHAR

STARTCHAR Q
ENCODING 81
SWIDTH 602 0
DWIDTH 7 0
BBX 7 12 0 -2
BITMAP
00
00
3C
24
42
42
42
42
26
3C
04
02
ENDCHAR

STARTCHAR R
ENCODING 82
SWIDTH 602 0
DWIDTH 7 0
BBX 7 12 0 -2
BITMAP
00
00
7C
44
44
4C
70
48
44
46
00
00
ENDCHAR

STARTCHAR S
ENCODING 83
SWIDTH 602 0
DWIDTH 7 0
BBX 7 12 0 -2
BITMAP
00
00
38
40
40
30
0C
04
44
78
00
00
ENDCHAR

STARTCHAR T
ENCODING 84
SWIDTH 602 0
DWIDTH 7 0
BBX 7 12 0 -2
BITMAP
00
00
FE
10
10
10
10
10
10
10
00
00
ENDCHAR

STARTCHAR U
ENCODING 85
SWIDTH 602 0
DWIDTH 7 0
BBX 7 12 0 -2
BITMAP
00
00
44
44
44
44
44
44
44
38
00
00
ENDCHAR

STARTCHAR V
ENCODING 86
SWIDTH 602 0
DWIDTH 7 0
BBX 7 12 0 -2
BITMAP
00
00
84
84
48
48
48
30
30
30
00
00
ENDCHAR

STARTCHAR W
ENCODING 87
SWIDTH 602 0
DWIDTH 7 0
BBX 7 12 0 -2
BITMAP
00
00
82
92
AA
AE
6C
6C
64
44
00
00
ENDCHAR

STARTCHAR X
ENCODING 88
SWIDTH 602 0
DWIDTH 7 0
BBX 7 12 0 -2
BITMAP
00
00
C4
48
30
30
30
78
48
84
00
00
ENDCHAR

STARTCHAR Y
ENCODING 89
SWIDTH 602 0
DWIDTH 7 0
BBX 7 12 0 -2
BITMAP
00
00
C6
44
28
28
10
10
10
10
00
00
ENDCHAR

STARTCHAR Z
ENCODING 90
SWIDTH 602 0
DWIDTH 7 0
BBX 7 12 0 -2
BITMAP
00
00
FC
08
18
10
20
40
C0
FC
00
00
ENDCHAR

STARTCHAR bracketleft
ENCODING 91
SWIDTH 602 0
DWIDTH 7 0
BBX 7 12 0 -2
BITMAP
00
00
1C
10
10
10
10
10
10
10
10
1C
ENDCHAR

STARTCHAR backslash
ENCODING 92
SWIDTH 602 0
DWIDTH 7 0
BBX 7 12 0 -2
BITMAP
00
00
80
40
40
20
20
10
10
08
08
04
ENDCHAR

STARTCHAR bracketright
ENCODING 93
SWIDTH 602 0
DWIDTH 7 0
BBX 7 12 0 -2
BITMAP
00
00
70
10
10
10
10
10
10
10
10
70
ENDCHAR

STARTCHAR asciicircum
ENCODING 94
SWIDTH 602 0
DWIDTH 7 0
BBX 7 12 0 -2
BITMAP
00
00
10
30
30
78
48
48
84
00
00
00
ENDCHAR

STARTCHAR underscore
ENCODING 95
SWIDTH 602 0
DWIDTH 7 0
BBX 7 12 0 -2
BITMAP
00
00
00
00
00
00
00
00
00
00
FE
00
ENDCHAR

STARTCHAR quoteleft
ENCODING 96
SWIDTH 602 0
DWIDTH 7 0
BBX 7 12 0 -2
BITMAP
00
00
30
20
30
00
00
00
00
00
00
00
ENDCHAR

STARTCHAR a
ENCODING 97
SWIDTH 602 0
DWIDTH 7 0
BBX 7 12 0 -2
BITMAP
00
00
00
00
3C
24
3C
44
44
3E
00
00
ENDCHAR

STARTCHAR b
ENCODING 98
SWIDTH 602 0
DWIDTH 7 0
BBX 7 12 0 -2
BITMAP
00
00
40
40
58
64
44
44
4C
78
00
00
ENDCHAR

STARTCHAR c
ENCODING 99
SWIDTH 602 0
DWIDTH 7 0
BBX 7 12 0 -2
BITMAP
00
00
00
00
3C
60
40
40
60
3C
00
00
ENDCHAR

STARTCHAR d
ENCODING 100
SWIDTH 602 0
DWIDTH 7 0
BBX 7 12 0 -2
BITMAP
00
00
04
04
3C
64
44
44
4C
34
00
00
ENDCHAR

STARTCHAR e
ENCODING 101
SWIDTH 602 0
DWIDTH 7 0
BBX 7 12 0 -2
BITMAP
00
00
00
00
38
44
7C
40
40
3C
00
00
ENDCHAR

STARTCHAR f
ENCODING 102
SWIDTH 602 0
DWIDTH 7 0
BBX 7 12 0 -2
BITMAP
00
1E
10
10
7E
10
10
10
10
10
00
00
ENDCHAR

STARTCHAR g
ENCODING 103
SWIDTH 602 0
DWIDTH 7 0
BBX 7 12 0 -2
BITMAP
00
00
00
00
3C
64
44
44
4C
34
04
78
ENDCHAR

STARTCHAR h
ENCODING 104
SWIDTH 602 0
DWIDTH 7 0
BBX 7 12 0 -2
BITMAP
00
00
40
40
58
64
44
44
44
44
00
00
ENDCHAR

STARTCHAR i
ENCODING 105
SWIDTH 602 0
DWIDTH 7 0
BBX 7 12 0 -2
BITMAP
00
00
10
00
70
10
10
10
10
10
00
00
ENDCHAR

STARTCHAR j
ENCODING 106
SWIDTH 602 0
DWIDTH 7 0
BBX 7 12 0 -2
BITMAP
00
00
08
00
78
08
08
08
08
08
08
70
ENDCHAR

STARTCHAR k
ENCODING 107
SWIDTH 602 0
DWIDTH 7 0
BBX 7 12 0 -2
BITMAP
00
00
40
40
4C
50
60
50
58
4C
00
00
ENDCHAR

STARTCHAR l
ENCODING 108
SWIDTH 602 0
DWIDTH 7 0
BBX 7 12 0 -2
BITMAP
00
00
70
10
10
10
10
10
10
10
00
00
ENDCHAR

STARTCHAR m
ENCODING 109
SWIDTH 602 0
DWIDTH 7 0
BBX 7 12 0 -2
BITMAP
00
00
00
00
7C
54
54
54
54
54
00
00
ENDCHAR

STARTCHAR n
ENCODING 110
SWIDTH 602 0
DWIDTH 7 0
BBX 7 12 0 -2
BITMAP
00
00
00
00
58
64
44
44
44
44
00
00
ENDCHAR

STARTCHAR o
ENCODING 111
SWIDTH 602 0
DWIDTH 7 0
BBX 7 12 0 -2
BITMAP
00
00
00
00
78
CC
84
84
CC
78
00
00
ENDCHAR

STARTCHAR p
ENCODING 112
SWIDTH 602 0
DWIDTH 7 0
BBX 7 12 0 -2
BITMAP
00
00
00
00
58
64
44
44
4C
78
40
40
ENDCHAR

STARTCHAR q
ENCODING 113
SWIDTH 602 0
DWIDTH 7 0
BBX 7 12 0 -2
BITMAP
00
00
00
00
3C
64
44
44
4C
34
04
04
ENDCHAR

STARTCHAR r
ENCODING 114
SWIDTH 602 0
DWIDTH 7 0
BBX 7 12 0 -2
BITMAP
00
00
00
00
2C
34
20
20
20
20
00
00
ENDCHAR

STARTCHAR s
ENCODING 115
SWIDTH 602 0
DWIDTH 7 0
BBX 7 12 0 -2
BITMAP
00
00
00
00
3C
40
70
0C
44
78
00
00
ENDCHAR

STARTCHAR t
ENCODING 116
SWIDTH 602 0
DWIDTH 7 0
BBX 7 12 0 -2
BITMAP
00
00
00
20
7C
20
20
20
20
3C
00
00
ENDCHAR

STARTCHAR u
ENCODING 117
SWIDTH 602 0
DWIDTH 7 0
BBX 7 12 0 -2
BITMAP
00
00
00
00
44
44
44
44
4C
34
00
00
ENDCHAR

STARTCHAR v
ENCODING 118
SWIDTH 602 0
DWIDTH 7 0
BBX 7 12 0 -2
BITMAP
00
00
00
00
84
48
48
48
30
30
00
00
ENDCHAR

STARTCHAR w
ENCODING 119
SWIDTH 602 0
DWIDTH 7 0
BBX 7 12 0 -2
BITMAP
00
00
00
00
84
B4
B4
B4
58
48
00
00
ENDCHAR

STARTCHAR x
ENCODING 120
SWIDTH 602 0
DWIDTH 7 0
BBX 7 12 0 -2
BITMAP
00
00
00
00
CC
48
30
30
48
CC
00
00
ENDCHAR

STARTCHAR y
ENCODING 121
SWIDTH 602 0
DWIDTH 7 0
BBX 7 12 0 -2
BITMAP
00
00
00
00
84
48
48
30
30
30
20
E0
ENDCHAR

STARTCHAR z
ENCODING 122
SWIDTH 602 0
DWIDTH 7 0
BBX 7 12 0 -2
BITMAP
00
00
00
00
7C
08
18
30
60
7C
00
00
ENDCHAR

STARTCHAR braceleft
ENCODING 123
SWIDTH 602 0
DWIDTH 7 0
BBX 7 12 0 -2
BITMAP
00
00
18
20
20
20
60
20
20
20
20
18
ENDCHAR

STARTCHAR bar
ENCODING 124
SWIDTH 602 0
DWIDTH 7 0
BBX 7 12 0 -2
BITMAP
00
00
10
10
10
10
10
10
10
10
10
10
ENDCHAR

STARTCHAR braceright
ENCODING 125
SWIDTH 602 0
DWIDTH 7 0
BBX 7 12 0 -2
BITMAP
00
00
60
10
10
10
1C
10
10
10
10
60
ENDCHAR

STARTCHAR asciitilde
ENCODING 126
SWIDTH 602 0
DWIDTH 7 0
BBX 7 12 0 -2
BITMAP
00
00
00
00
00
00
64
98
00
00
00
00
ENDCHAR

STARTCHAR exclamdown
ENCODING 161
SWIDTH 602 0
DWIDTH 7 0
BBX 7 12 0 -2
BITMAP
00
00
00
00
10
00
10
10
10
10
10
10
ENDCHAR

STARTCHAR cent
ENCODING 162
SWIDTH 602 0
DWIDTH 7 0
BBX 7 12 0 -2
BITMAP
00
00
10
38
50
50
50
50
38
10
00
00
ENDCHAR

STARTCHAR sterling
ENCODING 163
SWIDTH 602 0
DWIDTH 7 0
BBX 7 12 0 -2
BITMAP
00
00
0C
10
10
38
10
10
10
3C
00
00
ENDCHAR

STARTCHAR EuroSign
ENCODING 164
SWIDTH 623 0
DWIDTH 7 0
BBX 7 12 0 -2
BITMAP
00
00
00
3C
44
40
F8
40
44
38
00
00
ENDCHAR

STARTCHAR yen
ENCODING 165
SWIDTH 602 0
DWIDTH 7 0
BBX 7 12 0 -2
BITMAP
00
00
C6
6C
38
7C
10
7C
10
10
00
00
ENDCHAR

STARTCHAR Scaron
ENCODING 166
SWIDTH 602 0
DWIDTH 7 0
BBX 7 12 0 -2
BITMAP
00
38
38
40
40
30
0C
04
44
78
00
00
ENDCHAR

STARTCHAR section
ENCODING 167
SWIDTH 602 0
DWIDTH 7 0
BBX 7 12 0 -2
BITMAP
00
00
38
40
40
30
48
68
30
08
48
70
ENDCHAR

STARTCHAR scaron
ENCODING 168
SWIDTH 602 0
DWIDTH 7 0
BBX 7 12 0 -2
BITMAP
00
00
00
38
3C
40
70
0C
44
78
00
00
ENDCHAR

STARTCHAR copyright
ENCODING 169
SWIDTH 602 0
DWIDTH 7 0
BBX 7 12 0 -2
BITMAP
00
00
38
44
74
64
64
74
44
38
00
00
ENDCHAR

STARTCHAR ordfeminine
ENCODING 170
SWIDTH 602 0
DWIDTH 7 0
BBX 7 12 0 -2
BITMAP
00
00
78
38
48
7C
00
00
00
00
00
00
ENDCHAR

STARTCHAR guillemotleft
ENCODING 171
SWIDTH 602 0
DWIDTH 7 0
BBX 7 12 0 -2
BITMAP
00
00
00
00
14
28
78
68
28
14
00
00
ENDCHAR

STARTCHAR logicalnot
ENCODING 172
SWIDTH 602 0
DWIDTH 7 0
BBX 7 12 0 -2
BITMAP
00
00
00
00
00
FC
04
04
04
00
00
00
ENDCHAR

STARTCHAR hyphen
ENCODING 173
SWIDTH 602 0
DWIDTH 7 0
BBX 7 12 0 -2
BITMAP
00
00
00
00
00
00
78
00
00
00
00
00
ENDCHAR

STARTCHAR registered
ENCODING 174
SWIDTH 602 0
DWIDTH 7 0
BBX 7 12 0 -2
BITMAP
00
00
30
78
68
78
30
00
00
00
00
00
ENDCHAR

STARTCHAR macron
ENCODING 175
SWIDTH 602 0
DWIDTH 7 0
BBX 7 12 0 -2
BITMAP
00
00
38
00
00
00
00
00
00
00
00
00
ENDCHAR

STARTCHAR degree
ENCODING 176
SWIDTH 602 0
DWIDTH 7 0
BBX 7 12 0 -2
BITMAP
00
00
30
30
00
00
00
00
00
00
00
00
ENDCHAR

STARTCHAR plusminus
ENCODING 177
SWIDTH 602 0
DWIDTH 7 0
BBX 7 12 0 -2
BITMAP
00
00
00
00
10
10
7C
10
00
7C
00
00
ENDCHAR

STARTCHAR twosuperior
ENCODING 178
SWIDTH 602 0
DWIDTH 7 0
BBX 7 12 0 -2
BITMAP
00
00
E0
20
40
E0
00
00
00
00
00
00
ENDCHAR

STARTCHAR threesuperior
ENCODING 179
SWIDTH 602 0
DWIDTH 7 0
BBX 7 12 0 -2
BITMAP
00
00
E0
E0
20
E0
00
00
00
00
00
00
ENDCHAR

STARTCHAR Zcaron
ENCODING 180
SWIDTH 602 0
DWIDTH 7 0
BBX 7 12 0 -2
BITMAP
00
38
FC
08
18
10
20
40
C0
FC
00
00
ENDCHAR

STARTCHAR mu
ENCODING 181
SWIDTH 602 0
DWIDTH 7 0
BBX 7 12 0 -2
BITMAP
00
00
00
00
44
44
44
44
4C
74
40
40
ENDCHAR

STARTCHAR paragraph
ENCODING 182
SWIDTH 602 0
DWIDTH 7 0
BBX 7 12 0 -2
BITMAP
00
00
78
78
78
38
18
18
18
18
18
18
ENDCHAR

STARTCHAR periodcentered
ENCODING 183
SWIDTH 602 0
DWIDTH 7 0
BBX 7 12 0 -2
BITMAP
00
00
00
00
00
00
10
00
00
00
00
00
ENDCHAR

STARTCHAR zcaron
ENCODING 184
SWIDTH 602 0
DWIDTH 7 0
BBX 7 12 0 -2
BITMAP
00
00
00
38
7C
08
18
30
60
7C
00
00
ENDCHAR

STARTCHAR onesuperior
ENCODING 185
SWIDTH 602 0
DWIDTH 7 0
BBX 7 12 0 -2
BITMAP
00
00
C0
40
40
E0
00
00
00
00
00
00
ENDCHAR

STARTCHAR ordmasculine
ENCODING 186
SWIDTH 602 0
DWIDTH 7 0
BBX 7 12 0 -2
BITMAP
00
00
30
48
48
30
00
00
00
00
00
00
ENDCHAR

STARTCHAR guillemotright
ENCODING 187
SWIDTH 602 0
DWIDTH 7 0
BBX 7 12 0 -2
BITMAP
00
00
00
00
50
28
2C
3C
28
50
00
00
ENDCHAR

STARTCHAR Ligature_OE
ENCODING 188
SWIDTH 623 0
DWIDTH 7 0
BBX 7 12 0 -2
BITMAP
00
00
00
3E
52
94
9C
94
52
3E
00
00
ENDCHAR

STARTCHAR Ligature_oe
ENCODING 189
SWIDTH 623 0
DWIDTH 7 0
BBX 7 12 0 -2
BITMAP
00
00
00
00
00
6C
92
9E
90
6E
00
00
ENDCHAR

STARTCHAR Ydiaeresis
ENCODING 190
SWIDTH 602 0
DWIDTH 7 0
BBX 7 12 0 -2
BITMAP
00
28
C6
44
28
28
10
10
10
10
00
00
ENDCHAR

STARTCHAR questiondown
ENCODING 191
SWIDTH 602 0
DWIDTH 7 0
BBX 7 12 0 -2
BITMAP
00
00
00
00
10
00
10
10
20
40
44
3C
ENDCHAR

STARTCHAR Agrave
ENCODING 192
SWIDTH 602 0
DWIDTH 7 0
BBX 7 12 0 -2
BITMAP
00
30
30
30
30
58
48
78
88
84
00
00
ENDCHAR

STARTCHAR Aacute
ENCODING 193
SWIDTH 602 0
DWIDTH 7 0
BBX 7 12 0 -2
BITMAP
00
30
30
30
30
58
48
78
88
84
00
00
ENDCHAR

STARTCHAR Acircumflex
ENCODING 194
SWIDTH 602 0
DWIDTH 7 0
BBX 7 12 0 -2
BITMAP
00
78
30
30
30
58
48
78
88
84
00
00
ENDCHAR

STARTCHAR Atilde
ENCODING 195
SWIDTH 602 0
DWIDTH 7 0
BBX 7 12 0 -2
BITMAP
00
78
30
30
30
58
48
78
88
84
00
00
ENDCHAR

STARTCHAR Adieresis
ENCODING 196
SWIDTH 602 0
DWIDTH 7 0
BBX 7 12 0 -2
BITMAP
00
28
30
30
30
58
48
78
88
84
00
00
ENDCHAR

STARTCHAR Aring
ENCODING 197
SWIDTH 602 0
DWIDTH 7 0
BBX 7 12 0 -2
BITMAP
30
30
30
30
30
58
48
78
88
84
00
00
ENDCHAR

STARTCHAR AE
ENCODING 198
SWIDTH 602 0
DWIDTH 7 0
BBX 7 12 0 -2
BITMAP
00
00
1C
30
30
78
50
70
90
9C
00
00
ENDCHAR

STARTCHAR Ccedilla
ENCODING 199
SWIDTH 602 0
DWIDTH 7 0
BBX 7 12 0 -2
BITMAP
00
00
3C
40
80
80
80
80
40
3C
20
30
ENDCHAR

STARTCHAR Egrave
ENCODING 200
SWIDTH 602 0
DWIDTH 7 0
BBX 7 12 0 -2
BITMAP
00
10
7C
40
40
78
40
40
40
7C
00
00
ENDCHAR

STARTCHAR Eacute
ENCODING 201
SWIDTH 602 0
DWIDTH 7 0
BBX 7 12 0 -2
BITMAP
00
20
7C
40
40
78
40
40
40
7C
00
00
ENDCHAR

STARTCHAR Ecircumflex
ENCODING 202
SWIDTH 602 0
DWIDTH 7 0
BBX 7 12 0 -2
BITMAP
00
38
7C
40
40
78
40
40
40
7C
00
00
ENDCHAR

STARTCHAR Edieresis
ENCODING 203
SWIDTH 602 0
DWIDTH 7 0
BBX 7 12 0 -2
BITMAP
00
28
7C
40
40
78
40
40
40
7C
00
00
ENDCHAR

STARTCHAR Igrave
ENCODING 204
SWIDTH 602 0
DWIDTH 7 0
BBX 7 12 0 -2
BITMAP
00
08
7C
10
10
10
10
10
10
7C
00
00
ENDCHAR

STARTCHAR Iacute
ENCODING 205
SWIDTH 602 0
DWIDTH 7 0
BBX 7 12 0 -2
BITMAP
00
20
7C
10
10
10
10
10
10
7C
00
00
ENDCHAR

STARTCHAR Icircumflex
ENCODING 206
SWIDTH 602 0
DWIDTH 7 0
BBX 7 12 0 -2
BITMAP
00
30
7C
10
10
10
10
10
10
7C
00
00
ENDCHAR

STARTCHAR Idieresis
ENCODING 207
SWIDTH 602 0
DWIDTH 7 0
BBX 7 12 0 -2
BITMAP
00
28
7C
10
10
10
10
10
10
7C
00
00
ENDCHAR

STARTCHAR Eth
ENCODING 208
SWIDTH 602 0
DWIDTH 7 0
BBX 7 12 0 -2
BITMAP
00
00
7C
46
42
E2
42
42
46
7C
00
00
ENDCHAR

STARTCHAR Ntilde
ENCODING 209
SWIDTH 602 0
DWIDTH 7 0
BBX 7 12 0 -2
BITMAP
00
78
44
64
64
54
54
4C
4C
44
00
00
ENDCHAR

STARTCHAR Ograve
ENCODING 210
SWIDTH 602 0
DWIDTH 7 0
BBX 7 12 0 -2
BITMAP
00
10
78
48
84
84
84
84
48
78
00
00
ENDCHAR

STARTCHAR Oacute
ENCODING 211
SWIDTH 602 0
DWIDTH 7 0
BBX 7 12 0 -2
BITMAP
00
20
78
48
84
84
84
84
48
78
00
00
ENDCHAR

STARTCHAR Ocircumflex
ENCODING 212
SWIDTH 602 0
DWIDTH 7 0
BBX 7 12 0 -2
BITMAP
00
30
78
48
84
84
84
84
48
78
00
00
ENDCHAR

STARTCHAR Otilde
ENCODING 213
SWIDTH 602 0
DWIDTH 7 0
BBX 7 12 0 -2
BITMAP
00
78
78
48
84
84
84
84
48
78
00
00
ENDCHAR

STARTCHAR Odieresis
ENCODING 214
SWIDTH 602 0
DWIDTH 7 0
BBX 7 12 0 -2
BITMAP
00
50
78
48
84
84
84
84
48
78
00
00
ENDCHAR

STARTCHAR multiply
ENCODING 215
SWIDTH 602 0
DWIDTH 7 0
BBX 7 12 0 -2
BITMAP
00
00
00
00
84
48
30
30
48
84
00
00
ENDCHAR

STARTCHAR Oslash
ENCODING 216
SWIDTH 602 0
DWIDTH 7 0
BBX 7 12 0 -2
BITMAP
00
00
74
4C
9C
94
A4
C4
C8
B8
00
00
ENDCHAR

STARTCHAR Ugrave
ENCODING 217
SWIDTH 602 0
DWIDTH 7 0
BBX 7 12 0 -2
BITMAP
00
18
44
44
44
44
44
44
44
38
00
00
ENDCHAR

STARTCHAR Uacute
ENCODING 218
SWIDTH 602 0
DWIDTH 7 0
BBX 7 12 0 -2
BITMAP
00
30
44
44
44
44
44
44
44
38
00
00
ENDCHAR

STARTCHAR Ucircumflex
ENCODING 219
SWIDTH 602 0
DWIDTH 7 0
BBX 7 12 0 -2
BITMAP
00
78
44
44
44
44
44
44
44
38
00
00
ENDCHAR

STARTCHAR Udieresis
ENCODING 220
SWIDTH 602 0
DWIDTH 7 0
BBX 7 12 0 -2
BITMAP
00
28
44
44
44
44
44
44
44
38
00
00
ENDCHAR

STARTCHAR Yacute
ENCODING 221
SWIDTH 602 0
DWIDTH 7 0
BBX 7 12 0 -2
BITMAP
00
30
C6
44
28
28
10
10
10
10
00
00
ENDCHAR

STARTCHAR Thorn
ENCODING 222
SWIDTH 602 0
DWIDTH 7 0
BBX 7 12 0 -2
BITMAP
00
00
40
78
44
44
44
44
78
40
00
00
ENDCHAR

STARTCHAR germandbls
ENCODING 223
SWIDTH 602 0
DWIDTH 7 0
BBX 7 12 0 -2
BITMAP
00
78
48
48
50
50
48
44
44
58
00
00
ENDCHAR

STARTCHAR agrave
ENCODING 224
SWIDTH 602 0
DWIDTH 7 0
BBX 7 12 0 -2
BITMAP
00
00
00
08
3C
24
3C
44
44
3E
00
00
ENDCHAR

STARTCHAR aacute
ENCODING 225
SWIDTH 602 0
DWIDTH 7 0
BBX 7 12 0 -2
BITMAP
00
00
00
10
3C
24
3C
44
44
3E
00
00
ENDCHAR

STARTCHAR acircumflex
ENCODING 226
SWIDTH 602 0
DWIDTH 7 0
BBX 7 12 0 -2
BITMAP
00
00
00
18
3C
24
3C
44
44
3E
00
00
ENDCHAR

STARTCHAR atilde
ENCODING 227
SWIDTH 602 0
DWIDTH 7 0
BBX 7 12 0 -2
BITMAP
00
00
00
3C
3C
24
3C
44
44
3E
00
00
ENDCHAR

STARTCHAR adieresis
ENCODING 228
SWIDTH 602 0
DWIDTH 7 0
BBX 7 12 0 -2
BITMAP
00
00
00
28
3C
24
3C
44
44
3E
00
00
ENDCHAR

STARTCHAR aring
ENCODING 229
SWIDTH 602 0
DWIDTH 7 0
BBX 7 12 0 -2
BITMAP
00
00
18
18
3C
24
3C
44
44
3E
00
00
ENDCHAR

STARTCHAR ae
ENCODING 230
SWIDTH 602 0
DWIDTH 7 0
BBX 7 12 0 -2
BITMAP
00
00
00
00
6C
12
7E
90
90
6E
00
00
ENDCHAR

STARTCHAR ccedilla
ENCODING 231
SWIDTH 602 0
DWIDTH 7 0
BBX 7 12 0 -2
BITMAP
00
00
00
00
3C
60
40
40
60
3C
10
18
ENDCHAR

STARTCHAR egrave
ENCODING 232
SWIDTH 602 0
DWIDTH 7 0
BBX 7 12 0 -2
BITMAP
00
00
00
08
38
44
7C
40
40
3C
00
00
ENDCHAR

STARTCHAR eacute
ENCODING 233
SWIDTH 602 0
DWIDTH 7 0
BBX 7 12 0 -2
BITMAP
00
00
00
20
38
44
7C
40
40
3C
00
00
ENDCHAR

STARTCHAR ecircumflex
ENCODING 234
SWIDTH 602 0
DWIDTH 7 0
BBX 7 12 0 -2
BITMAP
00
00
00
70
38
44
7C
40
40
3C
00
00
ENDCHAR

STARTCHAR edieresis
ENCODING 235
SWIDTH 602 0
DWIDTH 7 0
BBX 7 12 0 -2
BITMAP
00
00
00
28
38
44
7C
40
40
3C
00
00
ENDCHAR

STARTCHAR igrave
ENCODING 236
SWIDTH 602 0
DWIDTH 7 0
BBX 7 12 0 -2
BITMAP
00
00
00
10
70
10
10
10
10
10
00
00
ENDCHAR

STARTCHAR iacute
ENCODING 237
SWIDTH 602 0
DWIDTH 7 0
BBX 7 12 0 -2
BITMAP
00
00
00
20
70
10
10
10
10
10
00
00
ENDCHAR

STARTCHAR icircumflex
ENCODING 238
SWIDTH 602 0
DWIDTH 7 0
BBX 7 12 0 -2
BITMAP
00
00
00
38
70
10
10
10
10
10
00
00
ENDCHAR

STARTCHAR idieresis
ENCODING 239
SWIDTH 602 0
DWIDTH 7 0
BBX 7 12 0 -2
BITMAP
00
00
00
28
70
10
10
10
10
10
00
00
ENDCHAR

STARTCHAR eth
ENCODING 240
SWIDTH 602 0
DWIDTH 7 0
BBX 7 12 0 -2
BITMAP
00
00
70
28
38
44
44
44
6C
38
00
00
ENDCHAR

STARTCHAR ntilde
ENCODING 241
SWIDTH 602 0
DWIDTH 7 0
BBX 7 12 0 -2
BITMAP
00
00
00
78
58
64
44
44
44
44
00
00
ENDCHAR

STARTCHAR ograve
ENCODING 242
SWIDTH 602 0
DWIDTH 7 0
BBX 7 12 0 -2
BITMAP
00
00
00
10
78
CC
84
84
CC
78
00
00
ENDCHAR

STARTCHAR oacute
ENCODING 243
SWIDTH 602 0
DWIDTH 7 0
BBX 7 12 0 -2
BITMAP
00
00
00
20
78
CC
84
84
CC
78
00
00
ENDCHAR

STARTCHAR ocircumflex
ENCODING 244
SWIDTH 602 0
DWIDTH 7 0
BBX 7 12 0 -2
BITMAP
00
00
00
30
78
CC
84
84
CC
78
00
00
ENDCHAR

STARTCHAR otilde
ENCODING 245
SWIDTH 602 0
DWIDTH 7 0
BBX 7 12 0 -2
BITMAP
00
00
00
78
78
CC
84
84
CC
78
00
00
ENDCHAR

STARTCHAR odieresis
ENCODING 246
SWIDTH 602 0
DWIDTH 7 0
BBX 7 12 0 -2
BITMAP
00
00
00
50
78
CC
84
84
CC
78
00
00
ENDCHAR

STARTCHAR divide
ENCODING 247
SWIDTH 602 0
DWIDTH 7 0
BBX 7 12 0 -2
BITMAP
00
00
00
00
10
00
7C
00
00
10
00
00
ENDCHAR

STARTCHAR oslash
ENCODING 248
SWIDTH 602 0
DWIDTH 7 0
BBX 7 12 0 -2
BITMAP
00
00
00
00
7C
CC
94
A4
CC
F8
00
00
ENDCHAR

STARTCHAR ugrave
ENCODING 249
SWIDTH 602 0
DWIDTH 7 0
BBX 7 12 0 -2
BITMAP
00
00
00
18
44
44
44
44
4C
34
00
00
ENDCHAR

STARTCHAR uacute
ENCODING 250
SWIDTH 602 0
DWIDTH 7 0
BBX 7 12 0 -2
BITMAP
00
00
00
30
44
44
44
44
4C
34
00
00
ENDCHAR

STARTCHAR ucircumflex
ENCODING 251
SWIDTH 602 0
DWIDTH 7 0
BBX 7 12 0 -2
BITMAP
00
00
00
3C
44
44
44
44
4C
34
00
00
ENDCHAR

STARTCHAR udieresis
ENCODING 252
SWIDTH 602 0
DWIDTH 7 0
BBX 7 12 0 -2
BITMAP
00
00
00
28
44
44
44
44
4C
34
00
00
ENDCHAR

STARTCHAR yacute
ENCODING 253
SWIDTH 602 0
DWIDTH 7 0
BBX 7 12 0 -2
BITMAP
00
00
00
30
84
48
48
30
30
30
20
E0
ENDCHAR

STARTCHAR thorn
ENCODING 254
SWIDTH 602 0
DWIDTH 7 0
BBX 7 12 0 -2
BITMAP
00
00
40
40
58
64
44
44
4C
78
40
40
ENDCHAR

STARTCHAR ydieresis
ENCODING 255
SWIDTH 602 0
DWIDTH 7 0
BBX 7 12 0 -2
BITMAP
00
00
00
50
84
48
48
30
30
30
20
E0
ENDCHAR
ENDFONT
